<?xml version="1.0" encoding="UTF-8" standalone="no"?>
<svg width="120px" height="120px" viewBox="0 0 120 120" version="1.1" xmlns="http://www.w3.org/2000/svg" xmlns:xlink="http://www.w3.org/1999/xlink">
    <g stroke="none" stroke-width="1" fill="none" fill-rule="evenodd">
        <path d="M120,108 C120,114.6 114.6,120 108,120 L12,120 C5.4,120 0,114.6 0,108 L0,12 C0,5.4 5.4,0 12,0 L108,0 C114.6,0 120,5.4 120,12 L120,108 L120,108 Z" id="Shape" fill="#0176D3"/>
        <rect id="Rectangle-1" fill="#FFFFFF" x="20" y="30" width="80" height="60" rx="4"/>
        <rect id="Chart-Bar-1" fill="#FF6B35" x="30" y="60" width="8" height="20"/>
        <rect id="Chart-Bar-2" fill="#1589EE" x="45" y="50" width="8" height="30"/>
        <rect id="Chart-Bar-3" fill="#27AE60" x="60" y="45" width="8" height="35"/>
        <rect id="Chart-Bar-4" fill="#8E44AD" x="75" y="40" width="8" height="40"/>
        <circle id="Data-Point-1" fill="#FF6B35" cx="35" cy="55" r="2"/>
        <circle id="Data-Point-2" fill="#1589EE" cx="50" cy="45" r="2"/>
        <circle id="Data-Point-3" fill="#27AE60" cx="65" cy="40" r="2"/>
        <circle id="Data-Point-4" fill="#8E44AD" cx="80" cy="35" r="2"/>
        <path d="M30,55 L45,45 L60,40 L75,35" stroke="#999999" stroke-width="1" fill="none"/>
    </g>
</svg>
